<svg xmlns="http://www.w3.org/2000/svg" width="256" height="256" viewBox="0 0 256 256" role="img" aria-label="OWTC FZE">
  <defs>
    <linearGradient id="g" x1="0" x2="1" y1="0" y2="1">
      <stop offset="0" stop-color="#0b3d91"/>
      <stop offset="1" stop-color="#c8a96a"/>
    </linearGradient>
    <filter id="s" x="-20%" y="-20%" width="140%" height="140%">
      <feDropShadow dx="0" dy="10" stdDeviation="12" flood-color="#0f172a" flood-opacity="0.22"/>
    </filter>
  </defs>
  <rect x="18" y="18" width="220" height="220" rx="44" fill="url(#g)" filter="url(#s)"/>
  <path d="M68 164V92h18l16 44 16-44h18v72h-14V118l-16 46h-8l-16-46v46H68z" fill="#fff" opacity="0.96"/>
  <path d="M158 164V92h20c24 0 40 14 40 36s-16 36-40 36h-20zm14-12h6c16 0 26-9 26-24s-10-24-26-24h-6v48z" fill="#fff" opacity="0.96"/>
</svg>

